<svg xmlns="http://www.w3.org/2000/svg" style="display:none">
  <!-- 软件站交互图标（24 viewBox，stroke 1.75） -->
  <symbol id="i-moon" viewBox="0 0 24 24">
    <path d="M20 14.5A8.5 8.5 0 0 1 9.5 4 8.5 8.5 0 1 0 20 14.5Z" fill="none" stroke="currentColor" stroke-width="1.75" stroke-linecap="round" stroke-linejoin="round"/>
  </symbol>
  <symbol id="i-sun" viewBox="0 0 24 24">
    <circle cx="12" cy="12" r="4" fill="none" stroke="currentColor" stroke-width="1.75"/>
    <path d="M12 2v2.5M12 19.5V22M2 12h2.5M19.5 12H22M4.9 4.9l1.8 1.8M17.3 17.3l1.8 1.8M19.1 4.9l-1.8 1.8M6.7 17.3l-1.8 1.8" stroke="currentColor" stroke-width="1.75" stroke-linecap="round"/>
  </symbol>
  <symbol id="i-download" viewBox="0 0 24 24">
    <path d="M12 3.5V15M6.5 10.5 12 16l5.5-5.5M4 19.5h16" fill="none" stroke="currentColor" stroke-width="1.75" stroke-linecap="round" stroke-linejoin="round"/>
  </symbol>
  <symbol id="i-globe" viewBox="0 0 24 24">
    <circle cx="12" cy="12" r="8.5" fill="none" stroke="currentColor" stroke-width="1.75"/>
    <path d="M3.5 12h17M12 3.5c2.5 2.3 3.8 5.2 3.8 8.5S14.5 18.2 12 20.5c-2.5-2.3-3.8-5.2-3.8-8.5S9.5 5.8 12 3.5Z" fill="none" stroke="currentColor" stroke-width="1.75" stroke-linejoin="round"/>
  </symbol>
  <symbol id="i-search" viewBox="0 0 24 24">
    <circle cx="11" cy="11" r="6.5" fill="none" stroke="currentColor" stroke-width="1.75"/>
    <path d="M16 16l4.5 4.5" fill="none" stroke="currentColor" stroke-width="1.75" stroke-linecap="round"/>
  </symbol>
</svg>
